HIERARCHY
ROOT hip
{
  OFFSET -5.55376 84.1819 36.8418
  CHANNELS 6 Xposition Yposition Zposition Zrotation Xrotation Yrotation
  JOINT abdomen
  {
    OFFSET 0 20.6881 -0.73152
    CHANNELS 3 Zrotation Xrotation Yrotation
    JOINT chest
    {
      OFFSET 0 11.7043 -0.48768
      CHANNELS 3 Zrotation Xrotation Yrotation
      JOINT neck
      {
        OFFSET 0 22.1894 -2.19456
        CHANNELS 3 Zrotation Xrotation Yrotation
        JOINT head
        {
          OFFSET -0.24384 7.07133 1.2192
          CHANNELS 3 Zrotation Xrotation Yrotation
          JOINT leftEye
          {
            OFFSET 4.14528 8.04674 8.04672
            CHANNELS 3 Zrotation Xrotation Yrotation
            End Site
            {
              OFFSET 1 0 0
            }
          }
          JOINT rightEye
          {
            OFFSET -3.6576 8.04674 8.04672
            CHANNELS 3 Zrotation Xrotation Yrotation
            End Site
            {
              OFFSET 1 0 0
            }
          }
        }
      }
      JOINT rCollar
      {
        OFFSET -2.68224 19.2634 -4.8768
        CHANNELS 3 Zrotation Xrotation Yrotation
        JOINT rShldr
        {
          OFFSET -8.77824 -1.95073 1.46304
          CHANNELS 3 Zrotation Xrotation Yrotation
          JOINT rForeArm
          {
            OFFSET -28.1742 -1.7115 0.48768
            CHANNELS 3 Zrotation Xrotation Yrotation
            JOINT rHand
            {
              OFFSET -22.5879 0.773209 7.07136
              CHANNELS 3 Zrotation Xrotation Yrotation
              JOINT rThumb1
              {
                OFFSET -1.2192 -0.487915 3.41376
                CHANNELS 3 Zrotation Xrotation Yrotation
                JOINT rThumb2
                {
                  OFFSET -3.37035 -0.52449 3.41376
                  CHANNELS 3 Zrotation Xrotation Yrotation
                  End Site
                  {
                    OFFSET -1.78271 -1.18214 1.43049
                  }
                }
              }
              JOINT rIndex1
              {
                OFFSET -7.75947 0.938293 5.60832
                CHANNELS 3 Zrotation Xrotation Yrotation
                JOINT rIndex2
                {
                  OFFSET -2.54057 -0.884171 1.56538
                  CHANNELS 3 Zrotation Xrotation Yrotation
                  End Site
                  {
                    OFFSET -1.62519 -0.234802 1.16502
                  }
                }
              }
              JOINT rMid1
              {
                OFFSET -8.24714 1.18213 3.41376
                CHANNELS 3 Zrotation Xrotation Yrotation
                JOINT rMid2
                {
                  OFFSET -3.10165 -0.590103 1.0647
                  CHANNELS 3 Zrotation Xrotation Yrotation
                  End Site
                  {
                    OFFSET -2.48547 -0.328903 0.83742
                  }
                }
              }
              JOINT rRing1
              {
                OFFSET -8.82822 0.546677 1.51678
                CHANNELS 3 Zrotation Xrotation Yrotation
                JOINT rRing2
                {
                  OFFSET -2.60934 -0.819778 -0.0198488
                  CHANNELS 3 Zrotation Xrotation Yrotation
                  End Site
                  {
                    OFFSET -2.33842 -0.294052 0.168128
                  }
                }
              }
              JOINT rPinky1
              {
                OFFSET -8.27202 -0.0477905 -0.4584
                CHANNELS 3 Zrotation Xrotation Yrotation
                JOINT rPinky2
                {
                  OFFSET -1.82734 -0.647385 -0.700984
                  CHANNELS 3 Zrotation Xrotation Yrotation
                  End Site
                  {
                    OFFSET -1.69225 -0.51767 -0.607171
                  }
                }
              }
            }
          }
        }
      }
      JOINT lCollar
      {
        OFFSET 2.68224 19.2634 -4.8768
        CHANNELS 3 Zrotation Xrotation Yrotation
        JOINT lShldr
        {
          OFFSET 8.77824 -1.95073 1.46304
          CHANNELS 3 Zrotation Xrotation Yrotation
          JOINT lForeArm
          {
            OFFSET 28.1742 -1.7115 0.48768
            CHANNELS 3 Zrotation Xrotation Yrotation
            JOINT lHand
            {
              OFFSET 22.5879 0.773209 7.07136
              CHANNELS 3 Zrotation Xrotation Yrotation
              JOINT lThumb1
              {
                OFFSET 1.2192 -0.487915 3.41376
                CHANNELS 3 Zrotation Xrotation Yrotation
                JOINT lThumb2
                {
                  OFFSET 3.37035 -0.52449 3.41376
                  CHANNELS 3 Zrotation Xrotation Yrotation
                  End Site
                  {
                    OFFSET 1.78271 -1.18214 1.43049
                  }
                }
              }
              JOINT lIndex1
              {
                OFFSET 7.75947 0.938293 5.60832
                CHANNELS 3 Zrotation Xrotation Yrotation
                JOINT lIndex2
                {
                  OFFSET 2.54057 -0.884171 1.56538
                  CHANNELS 3 Zrotation Xrotation Yrotation
                  End Site
                  {
                    OFFSET 1.62519 -0.234802 1.16502
                  }
                }
              }
              JOINT lMid1
              {
                OFFSET 8.24714 1.18213 3.41376
                CHANNELS 3 Zrotation Xrotation Yrotation
                JOINT lMid2
                {
                  OFFSET 3.10165 -0.590103 1.0647
                  CHANNELS 3 Zrotation Xrotation Yrotation
                  End Site
                  {
                    OFFSET 2.48547 -0.328903 0.83742
                  }
                }
              }
              JOINT lRing1
              {
                OFFSET 8.82822 0.546677 1.51678
                CHANNELS 3 Zrotation Xrotation Yrotation
                JOINT lRing2
                {
                  OFFSET 2.60934 -0.819778 -0.0198488
                  CHANNELS 3 Zrotation Xrotation Yrotation
                  End Site
                  {
                    OFFSET 2.33842 -0.294052 0.168128
                  }
                }
              }
              JOINT lPinky1
              {
                OFFSET 8.27202 -0.0477905 -0.4584
                CHANNELS 3 Zrotation Xrotation Yrotation
                JOINT lPinky2
                {
                  OFFSET 1.82734 -0.647385 -0.700984
                  CHANNELS 3 Zrotation Xrotation Yrotation
                  End Site
                  {
                    OFFSET 1.69225 -0.51767 -0.607171
                  }
                }
              }
            }
          }
        }
      }
    }
  }
  JOINT rButtock
  {
    OFFSET -8.77824 4.35084 1.2192
    CHANNELS 3 Zrotation Xrotation Yrotation
    JOINT rThigh
    {
      OFFSET 0 -1.70687 -2.19456
      CHANNELS 3 Zrotation Xrotation Yrotation
      JOINT rShin
      {
        OFFSET 0 -36.8199 0.73152
        CHANNELS 3 Zrotation Xrotation Yrotation
        JOINT rFoot
        {
          OFFSET 0.73152 -45.1104 -5.12064
          CHANNELS 3 Zrotation Xrotation Yrotation
          End Site
          {
            OFFSET -1.1221 -3.69964 12.103
          }
        }
      }
    }
  }
  JOINT lButtock
  {
    OFFSET 8.77824 4.35084 1.2192
    CHANNELS 3 Zrotation Xrotation Yrotation
    JOINT lThigh
    {
      OFFSET 0 -1.70687 -2.19456
      CHANNELS 3 Zrotation Xrotation Yrotation
      JOINT lShin
      {
        OFFSET 0 -36.8199 0.73152
        CHANNELS 3 Zrotation Xrotation Yrotation
        JOINT lFoot
        {
          OFFSET -0.73152 -45.1104 -5.12064
          CHANNELS 3 Zrotation Xrotation Yrotation
          End Site
          {
            OFFSET 1.1221 -3.69964 12.103
          }
        }
      }
    }
  }
}
MOTION
Frames:	4
Frame Time:	0.00833333
-3.82275 84.2564 37.1669 0.943673 0.00141495 -0.0174858 -1.24151 -0.00398119 -0.0340789 -0.342494 -0.00249264 -0.0593272 1.3165e-014 -7.95139e-016 -3.72721e-017 3.98035e-014 3.18055e-015 -6.36732e-017 -0 0 0 -0 0 0 6.45967e-015 4.87255e-017 1.98785e-016 1.39938e-013 1.12438e-015 1.19271e-015 2.39242e-012 -6.82229e-013 -2.54444e-014 2.74038e-011 8.95997e-013 -3.18055e-015 6.46422e-011 4.59822e-013 -4.45278e-014 1.11635e-010 7.98319e-013 -9.14409e-014 6.4648e-011 4.60783e-013 -5.08889e-014 7.73091 5.47488 0.417314 6.46425e-011 4.60087e-013 -4.45278e-014 2.90554 0.965183 0.102902 6.46479e-011 4.60485e-013 -4.85035e-014 10.2786 0.731801 0.0259123 6.4638e-011 4.60783e-013 -4.13472e-014 2.22167 -0.733487 -0.20892 6.36237e-015 4.77549e-017 -1.98785e-016 1.36854e-013 1.16786e-015 -3.97569e-016 2.39615e-012 7.50015e-013 -2.54444e-014 2.74201e-011 -5.41315e-013 2.54444e-014 6.46811e-011 4.49953e-013 -3.81667e-014 1.11711e-010 7.76055e-013 -6.67917e-014 6.46738e-011 4.50844e-013 -2.8625e-014 -7.73091 5.47488 -0.417314 6.46819e-011 4.50247e-013 -3.49861e-014 -2.90554 0.965183 -0.102902 6.46766e-011 4.50048e-013 -4.13472e-014 -10.2786 0.731801 -0.0259123 6.46911e-011 4.51241e-013 -5.40694e-014 -2.22167 -0.733487 0.20892 -2.03217e-016 0 -3.88251e-019 -0.453822 -1.92099 -0.00952741 -0.00915574 -2.07857 -0.0755533 -0.487472 3.99699 0.136656 2.03217e-016 0 3.88251e-019 -1.43726 -5.97115 0.129662 -0.00126431 5.25796 -0.0454145 0.507807 0.710743 -0.0722731 
-5.48897 84.0278 36.2201 -0.783269 0.262733 -1.5114 0.227709 -0.0887428 0.587833 -0.405676 -0.584564 0.125688 0.1385 1.21628 0.130708 0.86715 -0.195893 0.232588 -0 0 0 -0 0 0 -1.58308e-014 4.14241e-015 4.33933e-014 23.2421 7.15561 -3.7946 -5.97064 -3.18522 8.75554 0.0667606 5.73679 0.791729 8.74407e-012 -1.64244e-010 3.87609e-010 2.18546e-011 -2.90004e-010 6.70935e-010 8.74706e-012 -1.6424e-010 3.87603e-010 7.73091 5.47488 0.417314 8.74362e-012 -1.6424e-010 3.87612e-010 2.90554 0.965183 0.102902 8.74826e-012 -1.6424e-010 3.87606e-010 10.2786 0.731801 0.0259123 8.74101e-012 -1.6424e-010 3.87614e-010 2.22167 -0.733487 -0.20892 -1.58896e-014 4.14011e-015 4.30943e-014 -23.619 6.89888 2.2813 5.52753 -2.84193 -8.2447 -0.0295583 3.81523 -0.53191 1.65294e-010 2.89264e-010 3.40547e-010 2.89658e-010 5.02935e-010 5.87403e-010 1.65286e-010 2.89263e-010 3.40556e-010 -7.73091 5.47488 -0.417314 1.6529e-010 2.8926e-010 3.4055e-010 -2.90554 0.965183 -0.102902 1.65288e-010 2.89261e-010 3.40546e-010 -10.2786 0.731801 -0.0259123 1.65303e-010 2.89263e-010 3.40533e-010 -2.22167 -0.733487 0.20892 -2.03217e-016 0 -3.88251e-019 -0.8833 -0.38484 -0.194801 -0.00661418 -1.56091 -0.058202 -0.423494 0.488383 -1.332 2.03217e-016 0 3.88251e-019 1.96358 -6.96138 -1.72128 -0.0160629 10.5319 -0.185142 0.922572 -4.9085 3.79599 
-5.48857 84.0278 36.2201 -2.59301 0.538439 -3.09123 1.78192 -0.178401 1.24568 -0.468295 -1.20049 0.321352 0.277595 2.50204 0.268831 1.78764 -0.402075 0.478235 -0 0 0 -0 0 0 -3.78828e-014 9.31635e-015 9.12981e-014 48.8714 14.6133 -8.00703 -11.2364 -6.30472 18.0972 -0.0384422 11.8002 1.65588 -5.9028e-011 -3.3056e-010 8.00678e-010 -8.79489e-011 -5.84147e-010 1.38614e-009 -5.90281e-011 -3.30552e-010 8.00672e-010 7.73091 5.47488 0.417314 -5.90293e-011 -3.30552e-010 8.00683e-010 2.90554 0.965183 0.102902 -5.90256e-011 -3.30551e-010 8.00676e-010 10.2786 0.731801 0.0259123 -5.90298e-011 -3.30552e-010 8.00685e-010 2.22167 -0.733487 -0.20892 -3.79001e-014 9.3125e-015 9.11055e-014 -49.2018 14.1574 4.80612 10.4916 -5.65061 -17.0257 0.0168705 7.84533 -1.10182 2.63199e-010 5.86464e-010 7.02886e-010 4.63201e-010 1.01989e-009 1.21253e-009 2.6319e-010 5.86462e-010 7.02894e-010 -7.73091 5.47488 -0.417314 2.63189e-010 5.86455e-010 7.0289e-010 -2.90554 0.965183 -0.102902 2.63193e-010 5.86459e-010 7.02887e-010 -10.2786 0.731801 -0.0259123 2.63208e-010 5.86461e-010 7.02874e-010 -2.22167 -0.733487 0.20892 -2.03217e-016 0 -3.88251e-019 -1.32773 1.23892 -0.390295 -0.00426842 -1.0137 -0.0398744 -0.551482 -3.21636 -2.88876 2.03217e-016 0 3.88251e-019 5.4873 -7.9978 -3.687 -0.00252576 16.1062 -0.339972 2.19683 -10.7664 7.99988 
-5.48522 84.027 36.2202 -4.19631 0.783222 -4.49961 3.17167 -0.258148 1.83167 -0.520758 -1.74864 0.495929 0.398822 3.64877 0.392831 2.60622 -0.587641 0.697797 -0 0 0 -0 0 0 -6.04117e-014 1.23298e-014 1.29782e-013 72.721 21.0767 -12.1167 -15.0775 -8.66476 26.552 -0.294138 17.1969 2.47395 -1.03052e-010 -4.93652e-010 1.16292e-009 -1.57706e-010 -8.71609e-010 2.01299e-009 -1.03055e-010 -4.93642e-010 1.16291e-009 7.73091 5.47488 0.417314 -1.03054e-010 -4.93641e-010 1.16292e-009 2.90554 0.965183 0.102902 -1.03051e-010 -4.9364e-010 1.16291e-009 10.2786 0.731801 0.0259123 -1.03053e-010 -4.93642e-010 1.16293e-009 2.22167 -0.733487 -0.20892 -6.03936e-014 1.23248e-014 1.29681e-013 -72.5959 20.5608 7.25896 14.1946 -7.82111 -24.9512 0.127477 11.4417 -1.62448 3.66519e-010 8.66892e-010 1.02172e-009 6.45554e-010 1.50725e-009 1.76234e-009 3.66509e-010 8.66888e-010 1.02172e-009 -7.73091 5.47488 -0.417314 3.66505e-010 8.66878e-010 1.02172e-009 -2.90554 0.965183 -0.102902 3.66512e-010 8.66884e-010 1.02172e-009 -10.2786 0.731801 -0.0259123 3.66528e-010 8.66886e-010 1.02171e-009 -2.22167 -0.733487 0.20892 -2.03217e-016 0 -3.88251e-019 -1.71243 2.68731 -0.565969 -0.00247138 -0.525589 -0.0235351 -0.836675 -6.51027 -4.29627 2.03217e-016 0 3.88251e-019 8.57162 -8.91133 -5.44965 0.0367648 21.0791 -0.488299 4.08591 -15.8463 11.9512 
